<svg width="200" height="200" viewBox="0 0 200 200" xmlns="http://www.w3.org/2000/svg">
  <!-- Brain Shape -->
  <path d="M100,180 C55,180 20,145 20,100 C20,55 55,20 100,20 C145,20 180,55 180,100 C180,145 145,180 100,180 Z" fill="#6c5ce7" stroke="#5a49d1" stroke-width="5"/>
  
  <!-- Brain Details - Stylized Lines -->
  <path d="M40,100 C60,80 80,120 100,100 C120,80 140,120 160,100" fill="none" stroke="#ffffff" stroke-width="5" stroke-linecap="round"/>
  <path d="M40,80 C60,60 80,100 100,80 C120,60 140,100 160,80" fill="none" stroke="#ffffff" stroke-width="5" stroke-linecap="round"/>
  <path d="M40,120 C60,100 80,140 100,120 C120,100 140,140 160,120" fill="none" stroke="#ffffff" stroke-width="5" stroke-linecap="round"/>
  
  <!-- Smiley Face -->
  <circle cx="75" cy="85" r="8" fill="#ffffff"/>
  <circle cx="125" cy="85" r="8" fill="#ffffff"/>
  <path d="M75,130 Q100,150 125,130" fill="none" stroke="#ffffff" stroke-width="5" stroke-linecap="round"/>
  
  <!-- Text -->
  <text x="100" y="195" font-family="Arial, sans-serif" font-size="20" font-weight="bold" text-anchor="middle" fill="#ffffff">Brain Buddy</text>
</svg>
